<svg xmlns="http://www.w3.org/2000/svg" version="1.1" xmlns:xlink="http://www.w3.org/1999/xlink" xmlns:svgjs="http://svgjs.dev/svgjs" width="1920" height="1080" preserveAspectRatio="none" viewBox="0 0 1920 1080"><g mask="url(&quot;#SvgjsMask1057&quot;)" fill="none"><rect width="1920" height="1080" x="0" y="0" fill="rgba(0, 0, 0, 1)"></rect><path d="M127 1080L1207 0L1480 0L400 1080z" fill="url(&quot;#SvgjsLinearGradient1058&quot;)"></path><path d="M688.6 1080L1768.6 0L2190.1 0L1110.1 1080z" fill="url(&quot;#SvgjsLinearGradient1058&quot;)"></path><path d="M1915 1080L835 0L625 0L1705 1080z" fill="url(&quot;#SvgjsLinearGradient1059&quot;)"></path><path d="M1264.4 1080L184.4000000000001 0L-151.5999999999999 0L928.4000000000001 1080z" fill="url(&quot;#SvgjsLinearGradient1059&quot;)"></path><path d="M1010.8115678468845 1080L1920 170.8115678468845L1920 1080z" fill="url(&quot;#SvgjsLinearGradient1058&quot;)"></path><path d="M0 1080L909.1884321531155 1080L 0 170.8115678468845z" fill="url(&quot;#SvgjsLinearGradient1059&quot;)"></path></g><defs><mask id="SvgjsMask1057"><rect width="1920" height="1080" fill="#ffffff"></rect></mask><linearGradient x1="0%" y1="100%" x2="100%" y2="0%" id="SvgjsLinearGradient1058"><stop stop-color="rgba(70, 152, 129, 0.46)" offset="0"></stop><stop stop-opacity="0" stop-color="rgba(70, 152, 129, 0.46)" offset="0.66"></stop></linearGradient><linearGradient x1="100%" y1="100%" x2="0%" y2="0%" id="SvgjsLinearGradient1059"><stop stop-color="rgba(70, 152, 129, 0.46)" offset="0"></stop><stop stop-opacity="0" stop-color="rgba(70, 152, 129, 0.46)" offset="0.66"></stop></linearGradient></defs></svg>