<svg xmlns="http://www.w3.org/2000/svg" xmlns:xlink="http://www.w3.org/1999/xlink" zoomAndPan="magnify" preserveAspectRatio="xMidYMid meet" version="1.0" viewBox="271.88 594.2 1005.94 323.47"><defs><g/><clipPath id="a3b196bcd4"><path d="M 1236.269531 876.117188 L 1277.820312 876.117188 L 1277.820312 917.667969 L 1236.269531 917.667969 Z M 1236.269531 876.117188 " clip-rule="nonzero"/></clipPath><clipPath id="f5331ea7a3"><path d="M 1257.046875 876.117188 C 1245.570312 876.117188 1236.269531 885.417969 1236.269531 896.894531 C 1236.269531 908.367188 1245.570312 917.667969 1257.046875 917.667969 C 1268.519531 917.667969 1277.820312 908.367188 1277.820312 896.894531 C 1277.820312 885.417969 1268.519531 876.117188 1257.046875 876.117188 Z M 1257.046875 876.117188 " clip-rule="nonzero"/></clipPath><clipPath id="794fbc2c76"><path d="M 0.269531 0.117188 L 41.820312 0.117188 L 41.820312 41.667969 L 0.269531 41.667969 Z M 0.269531 0.117188 " clip-rule="nonzero"/></clipPath><clipPath id="aee8b37804"><path d="M 21.046875 0.117188 C 9.570312 0.117188 0.269531 9.417969 0.269531 20.894531 C 0.269531 32.367188 9.570312 41.667969 21.046875 41.667969 C 32.519531 41.667969 41.820312 32.367188 41.820312 20.894531 C 41.820312 9.417969 32.519531 0.117188 21.046875 0.117188 Z M 21.046875 0.117188 " clip-rule="nonzero"/></clipPath><clipPath id="2a599aa09c"><rect x="0" width="42" y="0" height="42"/></clipPath><clipPath id="1942a0ef7c"><path d="M 733.5 663.191406 L 1215.355469 663.191406 L 1215.355469 700.042969 L 733.5 700.042969 Z M 733.5 663.191406 " clip-rule="nonzero"/></clipPath><clipPath id="fc15297ac9"><path d="M 0.5 0.191406 L 482.355469 0.191406 L 482.355469 37.042969 L 0.5 37.042969 Z M 0.5 0.191406 " clip-rule="nonzero"/></clipPath><clipPath id="c15a848cfc"><rect x="0" width="483" y="0" height="38"/></clipPath></defs><g clip-path="url(#a3b196bcd4)"><g clip-path="url(#f5331ea7a3)"><g transform="matrix(1, 0, 0, 1, 1236, 876)"><g clip-path="url(#2a599aa09c)"><g clip-path="url(#794fbc2c76)"><g clip-path="url(#aee8b37804)"><path fill="#000000" d="M 0.269531 0.117188 L 41.820312 0.117188 L 41.820312 41.667969 L 0.269531 41.667969 Z M 0.269531 0.117188 " fill-opacity="1" fill-rule="nonzero"/></g></g></g></g></g></g><g clip-path="url(#1942a0ef7c)"><g transform="matrix(1, 0, 0, 1, 733, 663)"><g clip-path="url(#c15a848cfc)"><g clip-path="url(#fc15297ac9)"><path fill="#000000" d="M 0.5 0.191406 L 482.304688 0.191406 L 482.304688 37.042969 L 0.5 37.042969 Z M 0.5 0.191406 " fill-opacity="1" fill-rule="nonzero"/></g></g></g></g><g fill="#000000" fill-opacity="1"><g transform="translate(268.393575, 910.71019)"><g><path d="M 79.234375 3.71875 C 64.828125 3.71875 51.929688 1.4375 40.546875 -3.125 C 29.160156 -7.695312 20.132812 -14.359375 13.46875 -23.109375 C 6.8125 -31.867188 3.484375 -42.367188 3.484375 -54.609375 L 45.3125 -54.609375 C 45.3125 -48.722656 46.859375 -44 49.953125 -40.4375 C 53.054688 -36.875 57.160156 -34.316406 62.265625 -32.765625 C 67.378906 -31.210938 73.035156 -30.4375 79.234375 -30.4375 C 86.984375 -30.4375 92.910156 -31.789062 97.015625 -34.5 C 101.117188 -37.21875 103.171875 -40.664062 103.171875 -44.84375 C 103.171875 -49.332031 101.347656 -52.816406 97.703125 -55.296875 C 94.066406 -57.773438 89.148438 -59.941406 82.953125 -61.796875 C 76.753906 -63.660156 69.707031 -65.753906 61.8125 -68.078125 C 52.363281 -70.867188 43.53125 -74.273438 35.3125 -78.296875 C 27.101562 -82.328125 20.519531 -87.632812 15.5625 -94.21875 C 10.601562 -100.800781 8.125 -109.207031 8.125 -119.4375 C 8.125 -131.519531 10.988281 -141.273438 16.71875 -148.703125 C 22.457031 -156.140625 30.164062 -161.523438 39.84375 -164.859375 C 49.53125 -168.191406 60.335938 -169.859375 72.265625 -169.859375 C 85.273438 -169.859375 97.007812 -167.6875 107.46875 -163.34375 C 117.925781 -159.007812 126.328125 -152.8125 132.671875 -144.75 C 139.023438 -136.695312 142.359375 -127.019531 142.671875 -115.71875 L 100.84375 -115.71875 C 99.914062 -122.0625 96.929688 -126.976562 91.890625 -130.46875 C 86.859375 -133.957031 80.316406 -135.703125 72.265625 -135.703125 C 66.066406 -135.703125 60.796875 -134.65625 56.453125 -132.5625 C 52.117188 -130.46875 49.953125 -127.097656 49.953125 -122.453125 C 49.953125 -117.335938 52.582031 -113.578125 57.84375 -111.171875 C 63.113281 -108.773438 70.941406 -106.109375 81.328125 -103.171875 C 89.222656 -101.003906 96.925781 -98.601562 104.4375 -95.96875 C 111.957031 -93.332031 118.773438 -90.035156 124.890625 -86.078125 C 131.015625 -82.128906 135.894531 -77.132812 139.53125 -71.09375 C 143.175781 -65.0625 145 -57.628906 145 -48.796875 C 145 -32.835938 139.226562 -20.09375 127.6875 -10.5625 C 116.144531 -1.039062 99.992188 3.71875 79.234375 3.71875 Z M 79.234375 3.71875 "/></g></g></g><g fill="#000000" fill-opacity="1"><g transform="translate(422.218952, 910.71019)"><g><path d="M 11.390625 0 L 11.390625 -166.140625 L 92.015625 -166.140625 C 109.359375 -166.140625 123.066406 -161.6875 133.140625 -152.78125 C 143.210938 -143.875 148.25 -130.664062 148.25 -113.15625 C 148.25 -95.8125 143.210938 -82.644531 133.140625 -73.65625 C 123.066406 -64.675781 109.359375 -60.1875 92.015625 -60.1875 L 53.203125 -60.1875 L 53.203125 0 Z M 53.203125 -94.34375 L 83.1875 -94.34375 C 90.46875 -94.34375 96.160156 -95.734375 100.265625 -98.515625 C 104.367188 -101.304688 106.421875 -106.1875 106.421875 -113.15625 C 106.421875 -120.125 104.367188 -125.003906 100.265625 -127.796875 C 96.160156 -130.585938 90.46875 -131.984375 83.1875 -131.984375 L 53.203125 -131.984375 Z M 53.203125 -94.34375 "/></g></g></g><g fill="#000000" fill-opacity="1"><g transform="translate(577.206183, 910.71019)"><g><path d="M 86.90625 3.71875 C 69.394531 3.71875 54.484375 -0.0351562 42.171875 -7.546875 C 29.859375 -15.066406 20.523438 -25.367188 14.171875 -38.453125 C 7.816406 -51.546875 4.640625 -66.457031 4.640625 -83.1875 C 4.640625 -99.914062 7.816406 -114.785156 14.171875 -127.796875 C 20.523438 -140.804688 29.859375 -151.066406 42.171875 -158.578125 C 54.484375 -166.097656 69.394531 -169.859375 86.90625 -169.859375 C 104.40625 -169.859375 119.273438 -166.097656 131.515625 -158.578125 C 143.753906 -151.066406 153.085938 -140.804688 159.515625 -127.796875 C 165.941406 -114.785156 169.15625 -99.914062 169.15625 -83.1875 C 169.15625 -66.457031 165.941406 -51.546875 159.515625 -38.453125 C 153.085938 -25.367188 143.753906 -15.066406 131.515625 -7.546875 C 119.273438 -0.0351562 104.40625 3.71875 86.90625 3.71875 Z M 86.90625 -30.4375 C 96.96875 -30.4375 104.941406 -32.796875 110.828125 -37.515625 C 116.722656 -42.242188 120.945312 -48.632812 123.5 -56.6875 C 126.050781 -64.75 127.328125 -73.582031 127.328125 -83.1875 C 127.328125 -92.789062 126.050781 -101.582031 123.5 -109.5625 C 120.945312 -117.539062 116.722656 -123.890625 110.828125 -128.609375 C 104.941406 -133.335938 96.96875 -135.703125 86.90625 -135.703125 C 76.832031 -135.703125 68.8125 -133.335938 62.84375 -128.609375 C 56.882812 -123.890625 52.664062 -117.539062 50.1875 -109.5625 C 47.707031 -101.582031 46.46875 -92.789062 46.46875 -83.1875 C 46.46875 -73.582031 47.707031 -64.75 50.1875 -56.6875 C 52.664062 -48.632812 56.882812 -42.242188 62.84375 -37.515625 C 68.8125 -32.796875 76.832031 -30.4375 86.90625 -30.4375 Z M 86.90625 -30.4375 "/></g></g></g><g fill="#000000" fill-opacity="1"><g transform="translate(754.500371, 910.71019)"><g><path d="M 11.390625 0 L 11.390625 -166.140625 L 89.6875 -166.140625 C 108.125 -166.140625 122.609375 -161.992188 133.140625 -153.703125 C 143.671875 -145.421875 148.9375 -133.457031 148.9375 -117.8125 C 148.9375 -106.8125 145.914062 -97.863281 139.875 -90.96875 C 133.832031 -84.070312 125.625 -79.460938 115.25 -77.140625 L 115.25 -76.671875 C 122.21875 -75.429688 127.71875 -72.835938 131.75 -68.890625 C 135.78125 -64.941406 138.835938 -60.253906 140.921875 -54.828125 C 143.015625 -49.410156 144.445312 -43.757812 145.21875 -37.875 C 146 -31.988281 146.539062 -26.410156 146.84375 -21.140625 C 147.15625 -15.878906 147.582031 -11.539062 148.125 -8.125 C 148.664062 -4.71875 149.710938 -2.785156 151.265625 -2.328125 L 151.265625 0 L 107.8125 0 C 106.414062 -1.238281 105.5625 -3.445312 105.25 -6.625 C 104.945312 -9.800781 104.753906 -13.59375 104.671875 -18 C 104.597656 -22.414062 104.328125 -26.945312 103.859375 -31.59375 C 103.398438 -36.25 102.351562 -40.550781 100.71875 -44.5 C 99.09375 -48.445312 96.578125 -51.660156 93.171875 -54.140625 C 89.765625 -56.617188 85.117188 -57.859375 79.234375 -57.859375 L 53.203125 -57.859375 L 53.203125 0 Z M 53.203125 -92.015625 L 81.5625 -92.015625 C 89.925781 -92.015625 96.273438 -93.601562 100.609375 -96.78125 C 104.953125 -99.957031 107.125 -105.03125 107.125 -112 C 107.125 -118.96875 104.953125 -124.039062 100.609375 -127.21875 C 96.273438 -130.394531 89.925781 -131.984375 81.5625 -131.984375 L 53.203125 -131.984375 Z M 53.203125 -92.015625 "/></g></g></g><g fill="#000000" fill-opacity="1"><g transform="translate(913.902499, 910.71019)"><g><path d="M 52.28125 0 L 52.28125 -131.984375 L 3.953125 -131.984375 L 3.953125 -166.140625 L 142.203125 -166.140625 L 142.203125 -131.984375 L 94.109375 -131.984375 L 94.109375 0 Z M 52.28125 0 "/></g></g></g><g fill="#000000" fill-opacity="1"><g transform="translate(1063.545292, 910.71019)"><g><path d="M 79.234375 3.71875 C 64.828125 3.71875 51.929688 1.4375 40.546875 -3.125 C 29.160156 -7.695312 20.132812 -14.359375 13.46875 -23.109375 C 6.8125 -31.867188 3.484375 -42.367188 3.484375 -54.609375 L 45.3125 -54.609375 C 45.3125 -48.722656 46.859375 -44 49.953125 -40.4375 C 53.054688 -36.875 57.160156 -34.316406 62.265625 -32.765625 C 67.378906 -31.210938 73.035156 -30.4375 79.234375 -30.4375 C 86.984375 -30.4375 92.910156 -31.789062 97.015625 -34.5 C 101.117188 -37.21875 103.171875 -40.664062 103.171875 -44.84375 C 103.171875 -49.332031 101.347656 -52.816406 97.703125 -55.296875 C 94.066406 -57.773438 89.148438 -59.941406 82.953125 -61.796875 C 76.753906 -63.660156 69.707031 -65.753906 61.8125 -68.078125 C 52.363281 -70.867188 43.53125 -74.273438 35.3125 -78.296875 C 27.101562 -82.328125 20.519531 -87.632812 15.5625 -94.21875 C 10.601562 -100.800781 8.125 -109.207031 8.125 -119.4375 C 8.125 -131.519531 10.988281 -141.273438 16.71875 -148.703125 C 22.457031 -156.140625 30.164062 -161.523438 39.84375 -164.859375 C 49.53125 -168.191406 60.335938 -169.859375 72.265625 -169.859375 C 85.273438 -169.859375 97.007812 -167.6875 107.46875 -163.34375 C 117.925781 -159.007812 126.328125 -152.8125 132.671875 -144.75 C 139.023438 -136.695312 142.359375 -127.019531 142.671875 -115.71875 L 100.84375 -115.71875 C 99.914062 -122.0625 96.929688 -126.976562 91.890625 -130.46875 C 86.859375 -133.957031 80.316406 -135.703125 72.265625 -135.703125 C 66.066406 -135.703125 60.796875 -134.65625 56.453125 -132.5625 C 52.117188 -130.46875 49.953125 -127.097656 49.953125 -122.453125 C 49.953125 -117.335938 52.582031 -113.578125 57.84375 -111.171875 C 63.113281 -108.773438 70.941406 -106.109375 81.328125 -103.171875 C 89.222656 -101.003906 96.925781 -98.601562 104.4375 -95.96875 C 111.957031 -93.332031 118.773438 -90.035156 124.890625 -86.078125 C 131.015625 -82.128906 135.894531 -77.132812 139.53125 -71.09375 C 143.175781 -65.0625 145 -57.628906 145 -48.796875 C 145 -32.835938 139.226562 -20.09375 127.6875 -10.5625 C 116.144531 -1.039062 99.992188 3.71875 79.234375 3.71875 Z M 79.234375 3.71875 "/></g></g></g><g fill="#000000" fill-opacity="1"><g transform="translate(268.393575, 703.388991)"><g><path d="M 75.84375 0 L 14.828125 0 L 14.828125 -109.1875 L 75.84375 -109.1875 L 75.84375 -97.109375 L 28.59375 -97.109375 L 28.59375 -63 L 73.09375 -63 L 73.09375 -51.078125 L 28.59375 -51.078125 L 28.59375 -12.078125 L 75.84375 -12.078125 Z M 75.84375 0 "/></g></g></g><g fill="#000000" fill-opacity="1"><g transform="translate(348.669031, 703.388991)"><g><path d="M 91.75 -109.1875 L 52.765625 0 L 39 0 L 0 -109.1875 L 14.375 -109.1875 L 39 -39.140625 C 40.625 -34.660156 41.972656 -30.457031 43.046875 -26.53125 C 44.117188 -22.601562 45.0625 -18.859375 45.875 -15.296875 C 46.59375 -18.859375 47.507812 -22.628906 48.625 -26.609375 C 49.75 -30.585938 51.128906 -34.867188 52.765625 -39.453125 L 77.21875 -109.1875 Z M 91.75 -109.1875 "/></g></g></g><g fill="#000000" fill-opacity="1"><g transform="translate(435.672366, 703.388991)"><g><path d="M 75.84375 0 L 14.828125 0 L 14.828125 -109.1875 L 75.84375 -109.1875 L 75.84375 -97.109375 L 28.59375 -97.109375 L 28.59375 -63 L 73.09375 -63 L 73.09375 -51.078125 L 28.59375 -51.078125 L 28.59375 -12.078125 L 75.84375 -12.078125 Z M 75.84375 0 "/></g></g></g><g fill="#000000" fill-opacity="1"><g transform="translate(515.947822, 703.388991)"><g><path d="M 101.390625 0 L 85.328125 0 L 26.921875 -90.6875 L 26.296875 -90.6875 C 26.503906 -87.113281 26.757812 -82.675781 27.0625 -77.375 C 27.375 -72.070312 27.53125 -66.617188 27.53125 -61.015625 L 27.53125 0 L 14.828125 0 L 14.828125 -109.1875 L 30.734375 -109.1875 L 89 -18.8125 L 89.609375 -18.8125 C 89.503906 -20.4375 89.375 -22.878906 89.21875 -26.140625 C 89.070312 -29.410156 88.921875 -32.957031 88.765625 -36.78125 C 88.617188 -40.601562 88.546875 -44.195312 88.546875 -47.5625 L 88.546875 -109.1875 L 101.390625 -109.1875 Z M 101.390625 0 "/></g></g></g><g fill="#000000" fill-opacity="1"><g transform="translate(627.416173, 703.388991)"><g><path d="M 49.390625 0 L 35.625 0 L 35.625 -97.109375 L 1.53125 -97.109375 L 1.53125 -109.1875 L 83.34375 -109.1875 L 83.34375 -97.109375 L 49.390625 -97.109375 Z M 49.390625 0 "/></g></g></g></svg>